<mxfile host="app.diagrams.net" modified="2024-02-22T09:17:48.517Z" agent="Mozilla/5.0 (Windows NT 10.0; Win64; x64) AppleWebKit/537.36 (KHTML, like Gecko) Chrome/120.0.0.0 Safari/537.36 OPR/106.0.0.0" etag="fUKWEiNy88NkIfi6Pieh" version="23.1.4" type="device">
  <diagram name="Страница — 1" id="UVCxAoPfUNj3Rp8EmpfT">
    <mxGraphModel dx="2460" dy="807" grid="1" gridSize="10" guides="1" tooltips="1" connect="1" arrows="1" fold="1" page="1" pageScale="1" pageWidth="827" pageHeight="1169" math="0" shadow="0">
      <root>
        <mxCell id="0" />
        <mxCell id="1" parent="0" />
        <mxCell id="kgLjYJC8jPxPX_y6wVEK-1" value="Информационная система" style="rounded=0;whiteSpace=wrap;html=1;" vertex="1" parent="1">
          <mxGeometry x="320" y="20" width="120" height="40" as="geometry" />
        </mxCell>
        <mxCell id="kgLjYJC8jPxPX_y6wVEK-2" value="Подсистема управление персональными данными" style="rounded=0;whiteSpace=wrap;html=1;" vertex="1" parent="1">
          <mxGeometry x="40" y="120" width="140" height="60" as="geometry" />
        </mxCell>
        <mxCell id="kgLjYJC8jPxPX_y6wVEK-3" value="Подсистема управление процессом найма и увольнения" style="rounded=0;whiteSpace=wrap;html=1;" vertex="1" parent="1">
          <mxGeometry x="220" y="120" width="140" height="60" as="geometry" />
        </mxCell>
        <mxCell id="kgLjYJC8jPxPX_y6wVEK-4" value="Подсистема аналитика и отчётность" style="rounded=0;whiteSpace=wrap;html=1;" vertex="1" parent="1">
          <mxGeometry x="400" y="120" width="140" height="60" as="geometry" />
        </mxCell>
        <mxCell id="kgLjYJC8jPxPX_y6wVEK-5" value="Подсистема управление штатным расписанием" style="rounded=0;whiteSpace=wrap;html=1;" vertex="1" parent="1">
          <mxGeometry x="580" y="120" width="140" height="60" as="geometry" />
        </mxCell>
        <mxCell id="kgLjYJC8jPxPX_y6wVEK-6" value="Хранение и управление персональными данными" style="text;html=1;align=center;verticalAlign=middle;whiteSpace=wrap;rounded=0;" vertex="1" parent="1">
          <mxGeometry x="-20" y="210" width="110" height="40" as="geometry" />
        </mxCell>
        <mxCell id="kgLjYJC8jPxPX_y6wVEK-7" value="Поиск и обработка данных о сотрудниках" style="text;html=1;align=center;verticalAlign=middle;whiteSpace=wrap;rounded=0;" vertex="1" parent="1">
          <mxGeometry x="-15" y="295" width="100" height="40" as="geometry" />
        </mxCell>
        <mxCell id="kgLjYJC8jPxPX_y6wVEK-8" value="Соблюдение защиты персональных данных" style="text;html=1;align=center;verticalAlign=middle;whiteSpace=wrap;rounded=0;" vertex="1" parent="1">
          <mxGeometry x="5" y="380" width="60" height="30" as="geometry" />
        </mxCell>
        <mxCell id="kgLjYJC8jPxPX_y6wVEK-9" value="Управление доступом к персональным данным" style="text;html=1;align=center;verticalAlign=middle;whiteSpace=wrap;rounded=0;" vertex="1" parent="1">
          <mxGeometry x="5" y="460" width="60" height="30" as="geometry" />
        </mxCell>
        <mxCell id="kgLjYJC8jPxPX_y6wVEK-10" value="Оформление документации" style="text;html=1;align=center;verticalAlign=middle;whiteSpace=wrap;rounded=0;" vertex="1" parent="1">
          <mxGeometry x="190" y="215" width="60" height="30" as="geometry" />
        </mxCell>
        <mxCell id="kgLjYJC8jPxPX_y6wVEK-11" value="Учет и обработка данных об увольнении" style="text;html=1;align=center;verticalAlign=middle;whiteSpace=wrap;rounded=0;" vertex="1" parent="1">
          <mxGeometry x="190" y="295" width="60" height="30" as="geometry" />
        </mxCell>
        <mxCell id="kgLjYJC8jPxPX_y6wVEK-12" value="Учет и обработка данных о приёме на работу" style="text;html=1;align=center;verticalAlign=middle;whiteSpace=wrap;rounded=0;" vertex="1" parent="1">
          <mxGeometry x="165" y="380" width="110" height="30" as="geometry" />
        </mxCell>
        <mxCell id="kgLjYJC8jPxPX_y6wVEK-13" value="Графическое представление потребности в кадрах и подбору персонала" style="text;html=1;align=center;verticalAlign=middle;whiteSpace=wrap;rounded=0;" vertex="1" parent="1">
          <mxGeometry x="370" y="250" width="60" height="30" as="geometry" />
        </mxCell>
        <mxCell id="kgLjYJC8jPxPX_y6wVEK-15" value="Определение численности персонала" style="text;html=1;align=center;verticalAlign=middle;whiteSpace=wrap;rounded=0;" vertex="1" parent="1">
          <mxGeometry x="550" y="215" width="60" height="30" as="geometry" />
        </mxCell>
        <mxCell id="kgLjYJC8jPxPX_y6wVEK-16" value="Распределение сотрудников по должностям и отделам" style="text;html=1;align=center;verticalAlign=middle;whiteSpace=wrap;rounded=0;" vertex="1" parent="1">
          <mxGeometry x="550" y="295" width="60" height="30" as="geometry" />
        </mxCell>
        <mxCell id="kgLjYJC8jPxPX_y6wVEK-17" value="Составление графика работы" style="text;html=1;align=center;verticalAlign=middle;whiteSpace=wrap;rounded=0;" vertex="1" parent="1">
          <mxGeometry x="550" y="380" width="60" height="30" as="geometry" />
        </mxCell>
        <mxCell id="kgLjYJC8jPxPX_y6wVEK-18" value="Учет изменения в расписании" style="text;html=1;align=center;verticalAlign=middle;whiteSpace=wrap;rounded=0;" vertex="1" parent="1">
          <mxGeometry x="540" y="460" width="80" height="30" as="geometry" />
        </mxCell>
        <mxCell id="kgLjYJC8jPxPX_y6wVEK-19" value="Актуализация данных" style="text;html=1;align=center;verticalAlign=middle;whiteSpace=wrap;rounded=0;" vertex="1" parent="1">
          <mxGeometry x="5" y="540" width="60" height="30" as="geometry" />
        </mxCell>
        <mxCell id="kgLjYJC8jPxPX_y6wVEK-20" value="" style="endArrow=none;html=1;rounded=0;" edge="1" parent="1" target="kgLjYJC8jPxPX_y6wVEK-1">
          <mxGeometry width="50" height="50" relative="1" as="geometry">
            <mxPoint x="380" y="90" as="sourcePoint" />
            <mxPoint x="420" y="80" as="targetPoint" />
          </mxGeometry>
        </mxCell>
        <mxCell id="kgLjYJC8jPxPX_y6wVEK-21" value="" style="endArrow=none;html=1;rounded=0;" edge="1" parent="1" source="kgLjYJC8jPxPX_y6wVEK-2">
          <mxGeometry width="50" height="50" relative="1" as="geometry">
            <mxPoint x="90" y="110" as="sourcePoint" />
            <mxPoint x="110" y="90" as="targetPoint" />
          </mxGeometry>
        </mxCell>
        <mxCell id="kgLjYJC8jPxPX_y6wVEK-22" value="" style="endArrow=none;html=1;rounded=0;" edge="1" parent="1" source="kgLjYJC8jPxPX_y6wVEK-3">
          <mxGeometry width="50" height="50" relative="1" as="geometry">
            <mxPoint x="260" y="130" as="sourcePoint" />
            <mxPoint x="290" y="90" as="targetPoint" />
          </mxGeometry>
        </mxCell>
        <mxCell id="kgLjYJC8jPxPX_y6wVEK-23" value="" style="endArrow=none;html=1;rounded=0;" edge="1" parent="1" source="kgLjYJC8jPxPX_y6wVEK-4">
          <mxGeometry width="50" height="50" relative="1" as="geometry">
            <mxPoint x="450" y="120" as="sourcePoint" />
            <mxPoint x="470" y="90" as="targetPoint" />
          </mxGeometry>
        </mxCell>
        <mxCell id="kgLjYJC8jPxPX_y6wVEK-24" value="" style="endArrow=none;html=1;rounded=0;" edge="1" parent="1" source="kgLjYJC8jPxPX_y6wVEK-5">
          <mxGeometry width="50" height="50" relative="1" as="geometry">
            <mxPoint x="630" y="110" as="sourcePoint" />
            <mxPoint x="650" y="90" as="targetPoint" />
          </mxGeometry>
        </mxCell>
        <mxCell id="kgLjYJC8jPxPX_y6wVEK-25" value="" style="endArrow=none;html=1;rounded=0;" edge="1" parent="1">
          <mxGeometry width="50" height="50" relative="1" as="geometry">
            <mxPoint x="-70" y="90" as="sourcePoint" />
            <mxPoint x="830" y="90" as="targetPoint" />
          </mxGeometry>
        </mxCell>
        <mxCell id="kgLjYJC8jPxPX_y6wVEK-26" value="Подсистема управление повышением квалификации и командировками" style="rounded=0;whiteSpace=wrap;html=1;" vertex="1" parent="1">
          <mxGeometry x="-140" y="120" width="140" height="60" as="geometry" />
        </mxCell>
        <mxCell id="kgLjYJC8jPxPX_y6wVEK-27" value="Подсистема управление поощрениями и отпусками" style="rounded=0;whiteSpace=wrap;html=1;" vertex="1" parent="1">
          <mxGeometry x="760" y="120" width="140" height="60" as="geometry" />
        </mxCell>
        <mxCell id="kgLjYJC8jPxPX_y6wVEK-28" value="Хранение и управление данных о повышении квалификации" style="text;html=1;align=center;verticalAlign=middle;whiteSpace=wrap;rounded=0;" vertex="1" parent="1">
          <mxGeometry x="-270" y="210" width="150" height="40" as="geometry" />
        </mxCell>
        <mxCell id="kgLjYJC8jPxPX_y6wVEK-29" value="Хранение и управление данных о командировках" style="text;html=1;align=center;verticalAlign=middle;whiteSpace=wrap;rounded=0;" vertex="1" parent="1">
          <mxGeometry x="-270" y="295" width="150" height="40" as="geometry" />
        </mxCell>
        <mxCell id="kgLjYJC8jPxPX_y6wVEK-30" value="Поиск и обработка данных" style="text;html=1;align=center;verticalAlign=middle;whiteSpace=wrap;rounded=0;" vertex="1" parent="1">
          <mxGeometry x="-270" y="375" width="150" height="40" as="geometry" />
        </mxCell>
        <mxCell id="kgLjYJC8jPxPX_y6wVEK-31" value="Хранение и управление данных о повышении квалификации" style="text;html=1;align=center;verticalAlign=middle;whiteSpace=wrap;rounded=0;" vertex="1" parent="1">
          <mxGeometry x="690" y="210" width="120" height="40" as="geometry" />
        </mxCell>
        <mxCell id="kgLjYJC8jPxPX_y6wVEK-32" value="Хранение и управление данных о командировках" style="text;html=1;align=center;verticalAlign=middle;whiteSpace=wrap;rounded=0;" vertex="1" parent="1">
          <mxGeometry x="690" y="290" width="120" height="40" as="geometry" />
        </mxCell>
        <mxCell id="kgLjYJC8jPxPX_y6wVEK-33" value="Поиск и обработка данных" style="text;html=1;align=center;verticalAlign=middle;whiteSpace=wrap;rounded=0;" vertex="1" parent="1">
          <mxGeometry x="690" y="375" width="120" height="40" as="geometry" />
        </mxCell>
        <mxCell id="kgLjYJC8jPxPX_y6wVEK-34" value="" style="endArrow=none;html=1;rounded=0;" edge="1" parent="1" source="kgLjYJC8jPxPX_y6wVEK-26">
          <mxGeometry width="50" height="50" relative="1" as="geometry">
            <mxPoint x="-70" y="70" as="sourcePoint" />
            <mxPoint x="-70" y="90" as="targetPoint" />
          </mxGeometry>
        </mxCell>
        <mxCell id="kgLjYJC8jPxPX_y6wVEK-35" value="" style="endArrow=none;html=1;rounded=0;" edge="1" parent="1" source="kgLjYJC8jPxPX_y6wVEK-27">
          <mxGeometry width="50" height="50" relative="1" as="geometry">
            <mxPoint x="810" y="100" as="sourcePoint" />
            <mxPoint x="830" y="90" as="targetPoint" />
          </mxGeometry>
        </mxCell>
        <mxCell id="kgLjYJC8jPxPX_y6wVEK-36" value="" style="endArrow=none;html=1;rounded=0;" edge="1" parent="1" target="kgLjYJC8jPxPX_y6wVEK-2">
          <mxGeometry width="50" height="50" relative="1" as="geometry">
            <mxPoint x="110" y="600" as="sourcePoint" />
            <mxPoint x="210" y="560" as="targetPoint" />
          </mxGeometry>
        </mxCell>
        <mxCell id="kgLjYJC8jPxPX_y6wVEK-37" value="" style="endArrow=none;html=1;rounded=0;" edge="1" parent="1">
          <mxGeometry width="50" height="50" relative="1" as="geometry">
            <mxPoint x="-70.53" y="600" as="sourcePoint" />
            <mxPoint x="-70.53" y="180" as="targetPoint" />
          </mxGeometry>
        </mxCell>
        <mxCell id="kgLjYJC8jPxPX_y6wVEK-38" value="" style="endArrow=none;html=1;rounded=0;" edge="1" parent="1">
          <mxGeometry width="50" height="50" relative="1" as="geometry">
            <mxPoint x="289.47" y="600" as="sourcePoint" />
            <mxPoint x="289.47" y="180" as="targetPoint" />
          </mxGeometry>
        </mxCell>
        <mxCell id="kgLjYJC8jPxPX_y6wVEK-39" value="" style="endArrow=none;html=1;rounded=0;" edge="1" parent="1">
          <mxGeometry width="50" height="50" relative="1" as="geometry">
            <mxPoint x="469.47" y="600" as="sourcePoint" />
            <mxPoint x="469.47" y="180" as="targetPoint" />
          </mxGeometry>
        </mxCell>
        <mxCell id="kgLjYJC8jPxPX_y6wVEK-40" value="" style="endArrow=none;html=1;rounded=0;" edge="1" parent="1">
          <mxGeometry width="50" height="50" relative="1" as="geometry">
            <mxPoint x="649.47" y="600" as="sourcePoint" />
            <mxPoint x="649.47" y="180" as="targetPoint" />
          </mxGeometry>
        </mxCell>
        <mxCell id="kgLjYJC8jPxPX_y6wVEK-41" value="" style="endArrow=none;html=1;rounded=0;" edge="1" parent="1">
          <mxGeometry width="50" height="50" relative="1" as="geometry">
            <mxPoint x="829.47" y="600" as="sourcePoint" />
            <mxPoint x="829.47" y="180" as="targetPoint" />
          </mxGeometry>
        </mxCell>
        <mxCell id="kgLjYJC8jPxPX_y6wVEK-42" value="" style="endArrow=none;html=1;rounded=0;" edge="1" parent="1">
          <mxGeometry width="50" height="50" relative="1" as="geometry">
            <mxPoint x="-100" y="230" as="sourcePoint" />
            <mxPoint x="-70" y="230" as="targetPoint" />
          </mxGeometry>
        </mxCell>
        <mxCell id="kgLjYJC8jPxPX_y6wVEK-43" value="" style="endArrow=none;html=1;rounded=0;" edge="1" parent="1">
          <mxGeometry width="50" height="50" relative="1" as="geometry">
            <mxPoint x="-100" y="395" as="sourcePoint" />
            <mxPoint x="-70" y="395" as="targetPoint" />
          </mxGeometry>
        </mxCell>
        <mxCell id="kgLjYJC8jPxPX_y6wVEK-44" value="" style="endArrow=none;html=1;rounded=0;" edge="1" parent="1">
          <mxGeometry width="50" height="50" relative="1" as="geometry">
            <mxPoint x="-100" y="315" as="sourcePoint" />
            <mxPoint x="-70" y="315" as="targetPoint" />
          </mxGeometry>
        </mxCell>
        <mxCell id="kgLjYJC8jPxPX_y6wVEK-45" value="" style="endArrow=none;html=1;rounded=0;" edge="1" parent="1" source="kgLjYJC8jPxPX_y6wVEK-6">
          <mxGeometry width="50" height="50" relative="1" as="geometry">
            <mxPoint x="90" y="300" as="sourcePoint" />
            <mxPoint x="110" y="230" as="targetPoint" />
          </mxGeometry>
        </mxCell>
        <mxCell id="kgLjYJC8jPxPX_y6wVEK-46" value="" style="endArrow=none;html=1;rounded=0;" edge="1" parent="1">
          <mxGeometry width="50" height="50" relative="1" as="geometry">
            <mxPoint x="90" y="315" as="sourcePoint" />
            <mxPoint x="110" y="315" as="targetPoint" />
          </mxGeometry>
        </mxCell>
        <mxCell id="kgLjYJC8jPxPX_y6wVEK-47" value="" style="endArrow=none;html=1;rounded=0;" edge="1" parent="1">
          <mxGeometry width="50" height="50" relative="1" as="geometry">
            <mxPoint x="90" y="395" as="sourcePoint" />
            <mxPoint x="110" y="395" as="targetPoint" />
          </mxGeometry>
        </mxCell>
        <mxCell id="kgLjYJC8jPxPX_y6wVEK-48" value="" style="endArrow=none;html=1;rounded=0;" edge="1" parent="1">
          <mxGeometry width="50" height="50" relative="1" as="geometry">
            <mxPoint x="90" y="475" as="sourcePoint" />
            <mxPoint x="110" y="475" as="targetPoint" />
          </mxGeometry>
        </mxCell>
        <mxCell id="kgLjYJC8jPxPX_y6wVEK-49" value="" style="endArrow=none;html=1;rounded=0;" edge="1" parent="1">
          <mxGeometry width="50" height="50" relative="1" as="geometry">
            <mxPoint x="90" y="555" as="sourcePoint" />
            <mxPoint x="110" y="555" as="targetPoint" />
          </mxGeometry>
        </mxCell>
        <mxCell id="kgLjYJC8jPxPX_y6wVEK-50" value="" style="endArrow=none;html=1;rounded=0;" edge="1" parent="1">
          <mxGeometry width="50" height="50" relative="1" as="geometry">
            <mxPoint x="290" y="230" as="sourcePoint" />
            <mxPoint x="270" y="230" as="targetPoint" />
          </mxGeometry>
        </mxCell>
        <mxCell id="kgLjYJC8jPxPX_y6wVEK-51" value="" style="endArrow=none;html=1;rounded=0;" edge="1" parent="1">
          <mxGeometry width="50" height="50" relative="1" as="geometry">
            <mxPoint x="290" y="310" as="sourcePoint" />
            <mxPoint x="270" y="310" as="targetPoint" />
          </mxGeometry>
        </mxCell>
        <mxCell id="kgLjYJC8jPxPX_y6wVEK-52" value="" style="endArrow=none;html=1;rounded=0;exitX=0.98;exitY=0.34;exitDx=0;exitDy=0;exitPerimeter=0;" edge="1" parent="1" source="kgLjYJC8jPxPX_y6wVEK-12">
          <mxGeometry width="50" height="50" relative="1" as="geometry">
            <mxPoint x="260" y="490" as="sourcePoint" />
            <mxPoint x="290" y="390" as="targetPoint" />
          </mxGeometry>
        </mxCell>
        <mxCell id="kgLjYJC8jPxPX_y6wVEK-54" value="" style="endArrow=none;html=1;rounded=0;" edge="1" parent="1">
          <mxGeometry width="50" height="50" relative="1" as="geometry">
            <mxPoint x="450" y="265" as="sourcePoint" />
            <mxPoint x="470" y="265" as="targetPoint" />
          </mxGeometry>
        </mxCell>
        <mxCell id="kgLjYJC8jPxPX_y6wVEK-55" value="" style="endArrow=none;html=1;rounded=0;" edge="1" parent="1">
          <mxGeometry width="50" height="50" relative="1" as="geometry">
            <mxPoint x="630" y="230" as="sourcePoint" />
            <mxPoint x="650" y="230" as="targetPoint" />
          </mxGeometry>
        </mxCell>
        <mxCell id="kgLjYJC8jPxPX_y6wVEK-56" value="" style="endArrow=none;html=1;rounded=0;" edge="1" parent="1">
          <mxGeometry width="50" height="50" relative="1" as="geometry">
            <mxPoint x="630" y="310" as="sourcePoint" />
            <mxPoint x="650" y="310" as="targetPoint" />
          </mxGeometry>
        </mxCell>
        <mxCell id="kgLjYJC8jPxPX_y6wVEK-57" value="" style="endArrow=none;html=1;rounded=0;" edge="1" parent="1">
          <mxGeometry width="50" height="50" relative="1" as="geometry">
            <mxPoint x="630" y="395" as="sourcePoint" />
            <mxPoint x="650" y="395" as="targetPoint" />
          </mxGeometry>
        </mxCell>
        <mxCell id="kgLjYJC8jPxPX_y6wVEK-58" value="" style="endArrow=none;html=1;rounded=0;" edge="1" parent="1">
          <mxGeometry width="50" height="50" relative="1" as="geometry">
            <mxPoint x="650" y="475" as="sourcePoint" />
            <mxPoint x="630" y="475" as="targetPoint" />
          </mxGeometry>
        </mxCell>
        <mxCell id="kgLjYJC8jPxPX_y6wVEK-59" value="" style="endArrow=none;html=1;rounded=0;" edge="1" parent="1" source="kgLjYJC8jPxPX_y6wVEK-31">
          <mxGeometry width="50" height="50" relative="1" as="geometry">
            <mxPoint x="840" y="290" as="sourcePoint" />
            <mxPoint x="830" y="230" as="targetPoint" />
          </mxGeometry>
        </mxCell>
        <mxCell id="kgLjYJC8jPxPX_y6wVEK-60" value="" style="endArrow=none;html=1;rounded=0;" edge="1" parent="1" source="kgLjYJC8jPxPX_y6wVEK-32">
          <mxGeometry width="50" height="50" relative="1" as="geometry">
            <mxPoint x="870" y="330" as="sourcePoint" />
            <mxPoint x="830" y="310" as="targetPoint" />
          </mxGeometry>
        </mxCell>
        <mxCell id="kgLjYJC8jPxPX_y6wVEK-61" value="" style="endArrow=none;html=1;rounded=0;" edge="1" parent="1" source="kgLjYJC8jPxPX_y6wVEK-33">
          <mxGeometry width="50" height="50" relative="1" as="geometry">
            <mxPoint x="820" y="470" as="sourcePoint" />
            <mxPoint x="830" y="395" as="targetPoint" />
          </mxGeometry>
        </mxCell>
      </root>
    </mxGraphModel>
  </diagram>
</mxfile>
